<svg width="226" height="67" viewBox="0 0 226 67" fill="none" xmlns="http://www.w3.org/2000/svg">
<rect x="0.151367" y="0.0200806" width="225" height="66" rx="33" fill="#FFF4ED"/>
<rect x="145.3" y="21.1701" width="52.7" height="23.7" rx="11.85" fill="#252234" stroke="white" stroke-width="0.3"/>
<path d="M155.151 35.1451L158.276 32.0201L161.401 35.1451" stroke="#00CD88" stroke-linecap="round" stroke-linejoin="round"/>
<path d="M168.661 30.0201H170.061V34.8801H171.261V35.6301H170.061V37.0201H169.241V35.6301H165.621V34.9101L168.661 30.0201ZM169.121 30.7001L166.531 34.8801H169.241V30.7001H169.121ZM172.088 36.9601C171.955 36.8267 171.888 36.6634 171.888 36.4701C171.888 36.2767 171.955 36.1134 172.088 35.9801C172.221 35.8467 172.385 35.7801 172.578 35.7801C172.771 35.7801 172.935 35.8467 173.068 35.9801C173.201 36.1134 173.268 36.2767 173.268 36.4701C173.268 36.6634 173.201 36.8267 173.068 36.9601C172.935 37.0934 172.771 37.1601 172.578 37.1601C172.385 37.1601 172.221 37.0934 172.088 36.9601ZM174.51 30.0201H179.1V30.7701H175.32V33.2401H175.44C175.773 32.6201 176.343 32.3101 177.15 32.3101C177.763 32.3101 178.273 32.5267 178.68 32.9601C179.086 33.3867 179.29 33.9501 179.29 34.6501C179.29 35.3767 179.06 35.9767 178.6 36.4501C178.14 36.9234 177.536 37.1601 176.79 37.1601C176.03 37.1601 175.416 36.9401 174.95 36.5001C174.483 36.0534 174.25 35.4634 174.25 34.7301V34.5501H175.06V34.7001C175.06 35.2401 175.213 35.6601 175.52 35.9601C175.826 36.2601 176.25 36.4101 176.79 36.4101C177.316 36.4101 177.726 36.2534 178.02 35.9401C178.313 35.6267 178.46 35.1967 178.46 34.6501C178.46 34.1501 178.326 33.7567 178.06 33.4701C177.793 33.1834 177.436 33.0401 176.99 33.0401C176.423 33.0401 176.013 33.2801 175.76 33.7601H174.51V30.0201ZM180.218 31.4801C180.218 30.9801 180.358 30.5901 180.638 30.3101C180.925 30.0234 181.318 29.8801 181.818 29.8801C182.312 29.8801 182.702 30.0234 182.988 30.3101C183.275 30.5967 183.418 30.9867 183.418 31.4801V31.6701C183.418 32.1701 183.275 32.5601 182.988 32.8401C182.708 33.1201 182.318 33.2601 181.818 33.2601C181.318 33.2601 180.925 33.1201 180.638 32.8401C180.358 32.5601 180.218 32.1701 180.218 31.6701V31.4801ZM184.048 32.4201L185.818 29.9301L186.448 30.3901L184.498 32.7601L184.048 32.4201ZM180.888 31.4301V31.7101C180.888 32.0034 180.968 32.2367 181.128 32.4101C181.288 32.5834 181.518 32.6701 181.818 32.6701C182.118 32.6701 182.345 32.5867 182.498 32.4201C182.658 32.2467 182.738 32.0101 182.738 31.7101V31.4301C182.738 31.1301 182.658 30.8967 182.498 30.7301C182.345 30.5567 182.118 30.4701 181.818 30.4701C181.518 30.4701 181.288 30.5567 181.128 30.7301C180.968 30.9034 180.888 31.1367 180.888 31.4301ZM183.718 35.3801C183.718 34.8801 183.858 34.4901 184.138 34.2101C184.425 33.9234 184.818 33.7801 185.318 33.7801C185.812 33.7801 186.202 33.9234 186.488 34.2101C186.775 34.4967 186.918 34.8867 186.918 35.3801V35.5701C186.918 36.0701 186.775 36.4601 186.488 36.7401C186.208 37.0201 185.818 37.1601 185.318 37.1601C184.818 37.1601 184.425 37.0201 184.138 36.7401C183.858 36.4601 183.718 36.0701 183.718 35.5701V35.3801ZM183.088 34.6201L181.318 37.1101L180.688 36.6501L182.638 34.2801L183.088 34.6201ZM184.398 35.3301V35.6101C184.398 35.9101 184.475 36.1467 184.628 36.3201C184.788 36.4867 185.018 36.5701 185.318 36.5701C185.618 36.5701 185.848 36.4834 186.008 36.3101C186.168 36.1367 186.248 35.9034 186.248 35.6101V35.3301C186.248 35.0367 186.168 34.8034 186.008 34.6301C185.848 34.4567 185.618 34.3701 185.318 34.3701C185.018 34.3701 184.788 34.4567 184.628 34.6301C184.475 34.7967 184.398 35.0301 184.398 35.3301Z" fill="#00CD88"/>
<path d="M69.6554 41.0201L74.4554 24.2201H79.0154L83.7914 41.0201H81.1274L80.0234 37.0601H73.4474L72.3434 41.0201H69.6554ZM74.0954 34.6601H79.3754L76.9274 25.8281H76.5434L74.0954 34.6601ZM86.1394 41.0201V29.1881H88.5634V30.9641H88.9474C89.1714 30.4841 89.5714 30.0361 90.1474 29.6201C90.7234 29.2041 91.5794 28.9961 92.7154 28.9961C93.6114 28.9961 94.4034 29.1961 95.0914 29.5961C95.7954 29.9961 96.3474 30.5641 96.7474 31.3001C97.1474 32.0201 97.3474 32.8921 97.3474 33.9161V41.0201H94.8754V34.1081C94.8754 33.0841 94.6194 32.3321 94.1074 31.8521C93.5954 31.3561 92.8914 31.1081 91.9954 31.1081C90.9714 31.1081 90.1474 31.4441 89.5234 32.1161C88.9154 32.7881 88.6114 33.7641 88.6114 35.0441V41.0201H86.1394ZM100.905 41.0201V24.2201H103.377V33.7961H103.761L108.417 29.1881H111.705L105.729 34.9241L111.897 41.0201H108.633L103.761 36.1001H103.377V41.0201H100.905ZM114.124 41.0201V29.1881H116.548V30.5801H116.932C117.124 30.0841 117.428 29.7241 117.844 29.5001C118.276 29.2601 118.804 29.1401 119.428 29.1401H120.844V31.3721H119.332C118.532 31.3721 117.876 31.5961 117.364 32.0441C116.852 32.4761 116.596 33.1481 116.596 34.0601V41.0201H114.124Z" fill="#252234"/>
<path fill-rule="evenodd" clip-rule="evenodd" d="M44.9914 21.3801L52.8514 25.4001C53.9914 26.0001 54.7114 27.1401 54.7114 28.4601V30.3201H51.8314V28.4601C51.8314 28.2801 51.7114 28.1001 51.5314 27.9801L43.6714 23.9601C43.5514 23.9001 43.3714 23.9001 43.1914 23.9601L35.3314 27.9801C35.1514 28.0401 35.0314 28.2201 35.0314 28.4601V30.3201H32.1514V28.4601C32.1514 27.2001 32.8714 26.0001 34.0114 25.4001L41.8714 21.3801C42.8314 20.9001 43.9714 20.9001 44.9914 21.3801ZM45.8914 32.9001C45.8914 31.5201 44.7514 30.4401 43.4314 30.4401C42.0514 30.4401 40.9714 31.5201 40.9714 32.9001C40.9714 34.2801 42.1114 35.3601 43.4314 35.3601C44.7514 35.3601 45.8914 34.2801 45.8914 32.9001ZM51.4714 38.0601C51.6514 38.0001 51.7714 37.8201 51.7714 37.5801V35.7201H54.6514V37.5801C54.6514 38.8401 53.9314 40.0401 52.7914 40.6401L44.9314 44.6601C44.4514 44.9001 43.9114 45.0201 43.3714 45.0201C42.8314 45.0201 42.2914 44.9001 41.8114 44.6601L34.0114 40.6401C32.8714 40.0401 32.1514 38.9001 32.1514 37.5801V35.7201H35.0314V37.5801C35.0314 37.7601 35.1514 37.9401 35.3314 38.0601L41.9914 41.4201V38.0601C39.7114 37.4001 38.0914 35.3601 38.0914 32.9001C38.0914 29.9601 40.4914 27.5001 43.4914 27.5001C46.4314 27.5001 48.8914 29.9001 48.8914 32.9001C48.8914 35.3601 47.2114 37.4601 44.9914 38.0601V41.4201L51.4714 38.0601Z" fill="#245AE5" fill-opacity="0.9"/>
</svg>
