<svg width="226" height="67" viewBox="0 0 226 67" fill="none" xmlns="http://www.w3.org/2000/svg">
<rect x="0.756836" y="0.100464" width="225" height="66" rx="33" fill="#F3E2FC"/>
<rect x="145.907" y="21.2505" width="52.7" height="23.7" rx="11.85" fill="white" stroke="white" stroke-width="0.3"/>
<path d="M155.758 35.2255L158.883 32.1005L162.008 35.2255" stroke="#00CD88" stroke-linecap="round" stroke-linejoin="round"/>
<path d="M166.498 32.3405C166.498 31.6138 166.731 31.0371 167.198 30.6105C167.671 30.1771 168.281 29.9605 169.028 29.9605C169.728 29.9605 170.298 30.1671 170.738 30.5805C171.185 30.9938 171.408 31.5371 171.408 32.2105C171.408 32.8638 171.205 33.3738 170.798 33.7405C170.391 34.1071 169.805 34.4071 169.038 34.6405C168.405 34.8338 167.958 35.0305 167.698 35.2305C167.445 35.4238 167.318 35.7438 167.318 36.1905V36.3505H171.368V37.1005H166.488V36.2905C166.488 35.6438 166.668 35.1505 167.028 34.8105C167.395 34.4705 167.945 34.1938 168.678 33.9805C169.325 33.7871 169.805 33.5571 170.118 33.2905C170.431 33.0238 170.588 32.6538 170.588 32.1805C170.588 31.7271 170.441 31.3705 170.148 31.1105C169.861 30.8438 169.488 30.7105 169.028 30.7105C168.495 30.7105 168.075 30.8571 167.768 31.1505C167.468 31.4438 167.318 31.8571 167.318 32.3905V32.6005H166.498V32.3405ZM172.568 37.0405C172.435 36.9071 172.368 36.7438 172.368 36.5505C172.368 36.3571 172.435 36.1938 172.568 36.0605C172.701 35.9271 172.865 35.8605 173.058 35.8605C173.251 35.8605 173.415 35.9271 173.548 36.0605C173.681 36.1938 173.748 36.3571 173.748 36.5505C173.748 36.7438 173.681 36.9071 173.548 37.0405C173.415 37.1738 173.251 37.2405 173.058 37.2405C172.865 37.2405 172.701 37.1738 172.568 37.0405ZM174.99 30.1005H179.58V30.8505H175.8V33.3205H175.92C176.253 32.7005 176.823 32.3905 177.63 32.3905C178.243 32.3905 178.753 32.6071 179.16 33.0405C179.566 33.4671 179.77 34.0305 179.77 34.7305C179.77 35.4571 179.54 36.0571 179.08 36.5305C178.62 37.0038 178.016 37.2405 177.27 37.2405C176.51 37.2405 175.896 37.0205 175.43 36.5805C174.963 36.1338 174.73 35.5438 174.73 34.8105V34.6305H175.54V34.7805C175.54 35.3205 175.693 35.7405 176 36.0405C176.306 36.3405 176.73 36.4905 177.27 36.4905C177.796 36.4905 178.206 36.3338 178.5 36.0205C178.793 35.7071 178.94 35.2771 178.94 34.7305C178.94 34.2305 178.806 33.8371 178.54 33.5505C178.273 33.2638 177.916 33.1205 177.47 33.1205C176.903 33.1205 176.493 33.3605 176.24 33.8405H174.99V30.1005ZM180.698 31.5605C180.698 31.0605 180.838 30.6705 181.118 30.3905C181.405 30.1038 181.798 29.9605 182.298 29.9605C182.792 29.9605 183.182 30.1038 183.468 30.3905C183.755 30.6771 183.898 31.0671 183.898 31.5605V31.7505C183.898 32.2505 183.755 32.6405 183.468 32.9205C183.188 33.2005 182.798 33.3405 182.298 33.3405C181.798 33.3405 181.405 33.2005 181.118 32.9205C180.838 32.6405 180.698 32.2505 180.698 31.7505V31.5605ZM184.528 32.5005L186.298 30.0105L186.928 30.4705L184.978 32.8405L184.528 32.5005ZM181.368 31.5105V31.7905C181.368 32.0838 181.448 32.3171 181.608 32.4905C181.768 32.6638 181.998 32.7505 182.298 32.7505C182.598 32.7505 182.825 32.6671 182.978 32.5005C183.138 32.3271 183.218 32.0905 183.218 31.7905V31.5105C183.218 31.2105 183.138 30.9771 182.978 30.8105C182.825 30.6371 182.598 30.5505 182.298 30.5505C181.998 30.5505 181.768 30.6371 181.608 30.8105C181.448 30.9838 181.368 31.2171 181.368 31.5105ZM184.198 35.4605C184.198 34.9605 184.338 34.5705 184.618 34.2905C184.905 34.0038 185.298 33.8605 185.798 33.8605C186.292 33.8605 186.682 34.0038 186.968 34.2905C187.255 34.5771 187.398 34.9671 187.398 35.4605V35.6505C187.398 36.1505 187.255 36.5405 186.968 36.8205C186.688 37.1005 186.298 37.2405 185.798 37.2405C185.298 37.2405 184.905 37.1005 184.618 36.8205C184.338 36.5405 184.198 36.1505 184.198 35.6505V35.4605ZM183.568 34.7005L181.798 37.1905L181.168 36.7305L183.118 34.3605L183.568 34.7005ZM184.878 35.4105V35.6905C184.878 35.9905 184.955 36.2271 185.108 36.4005C185.268 36.5671 185.498 36.6505 185.798 36.6505C186.098 36.6505 186.328 36.5638 186.488 36.3905C186.648 36.2171 186.728 35.9838 186.728 35.6905V35.4105C186.728 35.1171 186.648 34.8838 186.488 34.7105C186.328 34.5371 186.098 34.4505 185.798 34.4505C185.498 34.4505 185.268 34.5371 185.108 34.7105C184.955 34.8771 184.878 35.1105 184.878 35.4105Z" fill="#00CD88"/>
<path d="M57.8848 41.1005V38.7965H60.1408V26.6045H57.8848V24.3005H66.4048C67.4128 24.3005 68.2928 24.4765 69.0448 24.8285C69.7968 25.1645 70.3808 25.6525 70.7968 26.2925C71.2288 26.9165 71.4448 27.6605 71.4448 28.5245V28.7645C71.4448 29.5325 71.3008 30.1645 71.0128 30.6605C70.7248 31.1565 70.3728 31.5405 69.9568 31.8125C69.5568 32.0845 69.1728 32.2765 68.8048 32.3885V32.7725C69.1728 32.8685 69.5648 33.0605 69.9808 33.3485C70.4128 33.6205 70.7728 34.0045 71.0608 34.5005C71.3648 34.9965 71.5168 35.6445 71.5168 36.4445V36.6845C71.5168 37.6125 71.3008 38.4045 70.8688 39.0605C70.4368 39.7165 69.8368 40.2205 69.0688 40.5725C68.3168 40.9245 67.4448 41.1005 66.4528 41.1005H57.8848ZM62.7568 38.7485H66.1408C67.0048 38.7485 67.6848 38.5405 68.1808 38.1245C68.6768 37.7085 68.9248 37.1325 68.9248 36.3965V36.1805C68.9248 35.4445 68.6768 34.8685 68.1808 34.4525C67.7008 34.0365 67.0208 33.8285 66.1408 33.8285H62.7568V38.7485ZM62.7568 31.4525H66.1408C66.9568 31.4525 67.6128 31.2525 68.1088 30.8525C68.6048 30.4365 68.8528 29.8765 68.8528 29.1725V28.9325C68.8528 28.2285 68.6048 27.6765 68.1088 27.2765C67.6288 26.8605 66.9728 26.6525 66.1408 26.6525H62.7568V31.4525ZM74.4949 41.1005V29.2685H76.9669V41.1005H74.4949ZM75.7429 27.6605C75.2629 27.6605 74.8549 27.5085 74.5189 27.2045C74.1989 26.8845 74.0389 26.4765 74.0389 25.9805C74.0389 25.4845 74.1989 25.0845 74.5189 24.7805C74.8549 24.4605 75.2629 24.3005 75.7429 24.3005C76.2389 24.3005 76.6469 24.4605 76.9669 24.7805C77.2869 25.0845 77.4469 25.4845 77.4469 25.9805C77.4469 26.4765 77.2869 26.8845 76.9669 27.2045C76.6469 27.5085 76.2389 27.6605 75.7429 27.6605ZM85.0755 41.1005C84.3555 41.1005 83.7795 40.8845 83.3475 40.4525C82.9315 40.0205 82.7235 39.4445 82.7235 38.7245V31.3565H79.4595V29.2685H82.7235V25.3565H85.1955V29.2685H88.7235V31.3565H85.1955V38.2925C85.1955 38.7725 85.4195 39.0125 85.8675 39.0125H88.3395V41.1005H85.0755ZM96.7018 41.4365C95.5658 41.4365 94.5338 41.1965 93.6058 40.7165C92.6938 40.2365 91.9658 39.5405 91.4218 38.6285C90.8938 37.7165 90.6298 36.6205 90.6298 35.3405V35.0285C90.6298 33.7485 90.8938 32.6605 91.4218 31.7645C91.9658 30.8525 92.6938 30.1565 93.6058 29.6765C94.5338 29.1805 95.5658 28.9325 96.7018 28.9325C97.8378 28.9325 98.8058 29.1405 99.6058 29.5565C100.406 29.9725 101.046 30.5245 101.526 31.2125C102.022 31.9005 102.342 32.6605 102.486 33.4925L100.086 33.9965C100.006 33.4685 99.8378 32.9885 99.5818 32.5565C99.3258 32.1245 98.9658 31.7805 98.5018 31.5245C98.0378 31.2685 97.4538 31.1405 96.7498 31.1405C96.0618 31.1405 95.4378 31.3005 94.8778 31.6205C94.3338 31.9245 93.9018 32.3725 93.5818 32.9645C93.2618 33.5405 93.1018 34.2445 93.1018 35.0765V35.2925C93.1018 36.1245 93.2618 36.8365 93.5818 37.4285C93.9018 38.0205 94.3338 38.4685 94.8778 38.7725C95.4378 39.0765 96.0618 39.2285 96.7498 39.2285C97.7898 39.2285 98.5818 38.9645 99.1258 38.4365C99.6698 37.8925 100.014 37.2045 100.158 36.3725L102.558 36.9245C102.366 37.7405 102.022 38.4925 101.526 39.1805C101.046 39.8685 100.406 40.4205 99.6058 40.8365C98.8058 41.2365 97.8378 41.4365 96.7018 41.4365ZM110.953 41.4365C109.769 41.4365 108.713 41.1965 107.785 40.7165C106.873 40.2205 106.153 39.5165 105.625 38.6045C105.097 37.6925 104.833 36.6125 104.833 35.3645V35.0045C104.833 33.7565 105.097 32.6845 105.625 31.7885C106.153 30.8765 106.873 30.1725 107.785 29.6765C108.713 29.1805 109.769 28.9325 110.953 28.9325C112.137 28.9325 113.193 29.1805 114.121 29.6765C115.049 30.1725 115.777 30.8765 116.305 31.7885C116.833 32.6845 117.097 33.7565 117.097 35.0045V35.3645C117.097 36.6125 116.833 37.6925 116.305 38.6045C115.777 39.5165 115.049 40.2205 114.121 40.7165C113.193 41.1965 112.137 41.4365 110.953 41.4365ZM110.953 39.2285C112.041 39.2285 112.921 38.8845 113.593 38.1965C114.281 37.4925 114.625 36.5245 114.625 35.2925V35.0765C114.625 33.8445 114.289 32.8845 113.617 32.1965C112.945 31.4925 112.057 31.1405 110.953 31.1405C109.881 31.1405 109.001 31.4925 108.313 32.1965C107.641 32.8845 107.305 33.8445 107.305 35.0765V35.2925C107.305 36.5245 107.641 37.4925 108.313 38.1965C109.001 38.8845 109.881 39.2285 110.953 39.2285ZM120.175 41.1005V29.2685H122.647V41.1005H120.175ZM121.423 27.6605C120.943 27.6605 120.535 27.5085 120.199 27.2045C119.879 26.8845 119.719 26.4765 119.719 25.9805C119.719 25.4845 119.879 25.0845 120.199 24.7805C120.535 24.4605 120.943 24.3005 121.423 24.3005C121.919 24.3005 122.327 24.4605 122.647 24.7805C122.967 25.0845 123.127 25.4845 123.127 25.9805C123.127 26.4765 122.967 26.8845 122.647 27.2045C122.327 27.5085 121.919 27.6605 121.423 27.6605ZM126.315 41.1005V29.2685H128.739V31.0445H129.123C129.347 30.5645 129.747 30.1165 130.323 29.7005C130.899 29.2845 131.755 29.0765 132.891 29.0765C133.787 29.0765 134.579 29.2765 135.267 29.6765C135.971 30.0765 136.523 30.6445 136.923 31.3805C137.323 32.1005 137.523 32.9725 137.523 33.9965V41.1005H135.051V34.1885C135.051 33.1645 134.795 32.4125 134.283 31.9325C133.771 31.4365 133.067 31.1885 132.171 31.1885C131.147 31.1885 130.323 31.5245 129.699 32.1965C129.091 32.8685 128.787 33.8445 128.787 35.1245V41.1005H126.315Z" fill="#252234"/>
<path d="M45.7098 30.7487C46.0843 28.2269 44.1781 26.8713 41.5715 25.9669L42.4171 22.5509L40.3527 22.0327L39.5295 25.3587C38.9796 25.2226 38.4284 25.0919 37.8761 24.9666L38.7051 21.6187L36.6413 21.1005L35.7958 24.5153C35.3466 24.4123 34.9056 24.3104 34.4775 24.2032L34.4799 24.1926L31.6328 23.4765L31.0837 25.6974C31.0837 25.6974 32.6154 26.051 32.583 26.0729C33.4191 26.2832 33.5702 26.8405 33.545 27.2823L32.5818 31.1739C32.6395 31.1887 32.7141 31.2106 32.7965 31.2432L32.5783 31.1887L31.2283 36.6403C31.126 36.8961 30.8667 37.2799 30.2816 37.1342C30.3028 37.1644 28.7817 36.757 28.7817 36.757L27.7568 39.1378L30.4433 39.8129C30.9431 39.9385 31.4329 40.0706 31.9151 40.1949L31.0607 43.6501L33.1228 44.1683L33.9683 40.7493C34.5316 40.9038 35.0784 41.0454 35.6135 41.1798L34.7703 44.5823L36.8342 45.1005L37.6891 41.6518C41.2094 42.3228 43.8565 42.0522 44.9707 38.8458C45.8685 36.2636 44.926 34.7741 43.0739 33.8023C44.4227 33.4884 45.4387 32.5947 45.7098 30.7487ZM40.9924 37.4102C40.3544 39.9924 36.038 38.5971 34.6386 38.2464L35.7723 33.669C37.1717 34.0214 41.6592 34.7179 40.9924 37.4102ZM41.6309 30.712C41.0488 33.0602 37.4562 31.8668 36.2909 31.5743L37.3187 27.4226C38.484 27.7152 42.2371 28.2618 41.6309 30.712Z" fill="#F7931A"/>
</svg>
