<svg width="226" height="67" viewBox="0 0 226 67" fill="none" xmlns="http://www.w3.org/2000/svg">
<rect x="0.302734" y="0.0401611" width="225" height="66" rx="33" fill="#EFF1E5"/>
<rect x="151.453" y="21.1902" width="52.7" height="23.7" rx="11.85" fill="white" stroke="white" stroke-width="0.3"/>
<path d="M167.553 32.0402L164.428 35.1652L161.303 32.0402" stroke="#FF8159" stroke-linecap="round" stroke-linejoin="round"/>
<path d="M172.084 37.0402V36.3102C172.084 35.8102 172.17 35.4102 172.344 35.1102C172.524 34.8102 172.77 34.5702 173.084 34.3902C173.404 34.2036 173.784 34.0436 174.224 33.9102L174.774 33.7402C175.074 33.6469 175.337 33.5336 175.564 33.4002C175.79 33.2602 175.967 33.0869 176.094 32.8802C176.22 32.6669 176.284 32.4069 176.284 32.1002V32.0602C176.284 31.6202 176.13 31.2736 175.824 31.0202C175.517 30.7602 175.124 30.6302 174.644 30.6302C174.137 30.6302 173.724 30.7669 173.404 31.0402C173.084 31.3069 172.924 31.7136 172.924 32.2602V32.4002H172.124V32.2702C172.124 31.7636 172.234 31.3336 172.454 30.9802C172.674 30.6269 172.974 30.3602 173.354 30.1802C173.734 29.9936 174.164 29.9002 174.644 29.9002C175.124 29.9002 175.547 29.9902 175.914 30.1702C176.287 30.3502 176.577 30.6002 176.784 30.9202C176.99 31.2402 177.094 31.6136 177.094 32.0402V32.1302C177.094 32.5836 177.004 32.9602 176.824 33.2602C176.644 33.5536 176.394 33.7936 176.074 33.9802C175.76 34.1669 175.39 34.3269 174.964 34.4602L174.424 34.6302C174.084 34.7369 173.8 34.8502 173.574 34.9702C173.354 35.0836 173.187 35.2302 173.074 35.4102C172.96 35.5902 172.904 35.8336 172.904 36.1402V36.3102H177.034V37.0402H172.084ZM178.839 37.1802C178.646 37.1802 178.482 37.1169 178.349 36.9902C178.222 36.8636 178.159 36.7002 178.159 36.5002C178.159 36.3002 178.222 36.1369 178.349 36.0102C178.482 35.8836 178.646 35.8202 178.839 35.8202C179.039 35.8202 179.202 35.8836 179.329 36.0102C179.456 36.1369 179.519 36.3002 179.519 36.5002C179.519 36.7002 179.456 36.8636 179.329 36.9902C179.202 37.1169 179.039 37.1802 178.839 37.1802ZM183.128 37.1802C182.615 37.1802 182.172 37.0836 181.798 36.8902C181.425 36.6902 181.135 36.4169 180.928 36.0702C180.722 35.7169 180.618 35.3102 180.618 34.8502V34.7302H181.428V34.8202C181.428 35.3469 181.582 35.7502 181.888 36.0302C182.195 36.3102 182.602 36.4502 183.108 36.4502C183.642 36.4502 184.058 36.3002 184.358 36.0002C184.658 35.7002 184.808 35.2902 184.808 34.7702V34.6802C184.808 34.1802 184.662 33.7836 184.368 33.4902C184.082 33.1902 183.708 33.0402 183.248 33.0402C182.982 33.0402 182.762 33.0836 182.588 33.1702C182.415 33.2502 182.278 33.3536 182.178 33.4802C182.078 33.6002 181.995 33.7169 181.928 33.8302H180.828V30.0402H185.428V30.7702H181.638V33.1902H181.778C181.852 33.0569 181.952 32.9269 182.078 32.8002C182.212 32.6736 182.388 32.5669 182.608 32.4802C182.828 32.3936 183.102 32.3502 183.428 32.3502C183.835 32.3502 184.202 32.4436 184.528 32.6302C184.862 32.8169 185.125 33.0836 185.318 33.4302C185.518 33.7769 185.618 34.1902 185.618 34.6702V34.7802C185.618 35.2536 185.518 35.6702 185.318 36.0302C185.118 36.3902 184.832 36.6736 184.458 36.8802C184.085 37.0802 183.642 37.1802 183.128 37.1802ZM187.445 37.1802L186.905 36.7502L192.475 29.9002L193.005 30.3302L187.445 37.1802ZM191.885 37.1702C191.398 37.1702 191.008 37.0302 190.715 36.7502C190.428 36.4636 190.285 36.0769 190.285 35.5902V35.5302C190.285 35.0436 190.428 34.6602 190.715 34.3802C191.008 34.0936 191.398 33.9502 191.885 33.9502C192.358 33.9502 192.741 34.0936 193.035 34.3802C193.328 34.6602 193.475 35.0436 193.475 35.5302V35.5902C193.475 36.0769 193.328 36.4636 193.035 36.7502C192.748 37.0302 192.365 37.1702 191.885 37.1702ZM191.885 36.5902C192.165 36.5902 192.385 36.5002 192.545 36.3202C192.711 36.1402 192.795 35.9069 192.795 35.6202V35.5002C192.795 35.2069 192.711 34.9736 192.545 34.8002C192.385 34.6202 192.165 34.5302 191.885 34.5302C191.598 34.5302 191.371 34.6202 191.205 34.8002C191.045 34.9736 190.965 35.2069 190.965 35.5002V35.6202C190.965 35.9069 191.045 36.1402 191.205 36.3202C191.371 36.5002 191.598 36.5902 191.885 36.5902ZM188.035 33.1302C187.548 33.1302 187.161 32.9869 186.875 32.7002C186.588 32.4136 186.445 32.0302 186.445 31.5502V31.4902C186.445 31.0036 186.588 30.6202 186.875 30.3402C187.161 30.0536 187.548 29.9102 188.035 29.9102C188.515 29.9102 188.898 30.0536 189.185 30.3402C189.478 30.6202 189.625 31.0036 189.625 31.4902V31.5502C189.625 32.0302 189.478 32.4136 189.185 32.7002C188.898 32.9869 188.515 33.1302 188.035 33.1302ZM188.035 32.5502C188.315 32.5502 188.538 32.4602 188.705 32.2802C188.871 32.1002 188.955 31.8669 188.955 31.5802V31.4602C188.955 31.1669 188.871 30.9336 188.705 30.7602C188.538 30.5802 188.315 30.4902 188.035 30.4902C187.748 30.4902 187.521 30.5802 187.355 30.7602C187.195 30.9336 187.115 31.1669 187.115 31.4602V31.5802C187.115 31.8669 187.195 32.1002 187.355 32.2802C187.521 32.4602 187.748 32.5502 188.035 32.5502Z" fill="#FF8159"/>
<path d="M62.0307 25.2402H68.9667C70.4547 25.2402 71.6547 25.6402 72.5667 26.4402C73.4787 27.2402 73.9347 28.3442 73.9347 29.7522C73.9347 30.7122 73.6867 31.5202 73.1907 32.1762C72.6947 32.8162 72.0147 33.2482 71.1507 33.4722V33.7602C71.9827 34.0002 72.6627 34.4482 73.1907 35.1042C73.7187 35.7602 73.9827 36.5602 73.9827 37.5042C73.9827 38.8962 73.5187 40.0002 72.5907 40.8162C71.6787 41.6322 70.4867 42.0402 69.0147 42.0402H62.0307V25.2402ZM64.4307 27.4482V32.5122H68.7987C69.6627 32.5122 70.3507 32.2882 70.8627 31.8402C71.3747 31.3762 71.6307 30.7442 71.6307 29.9442C71.6307 29.1762 71.3667 28.5682 70.8387 28.1202C70.3107 27.6722 69.6147 27.4482 68.7507 27.4482H64.4307ZM64.4307 34.7202L64.4307 39.8322H68.7987C69.6627 39.8322 70.3587 39.6082 70.8867 39.1602C71.4147 38.6962 71.6787 38.0802 71.6787 37.3122C71.6787 36.5122 71.4227 35.8802 70.9107 35.4162C70.3987 34.9522 69.7107 34.7202 68.8467 34.7202H64.4307ZM76.5569 27.9522C76.2049 27.6002 76.0289 27.1762 76.0289 26.6802C76.0289 26.1842 76.2049 25.7682 76.5569 25.4322C76.9089 25.0802 77.3409 24.9042 77.8529 24.9042C78.3649 24.9042 78.7969 25.0802 79.1489 25.4322C79.5009 25.7682 79.6769 26.1842 79.6769 26.6802C79.6769 27.1762 79.5009 27.6002 79.1489 27.9522C78.7969 28.2882 78.3649 28.4562 77.8529 28.4562C77.3409 28.4562 76.9089 28.2882 76.5569 27.9522ZM78.9809 30.2802V42.0402H76.7249V30.2802H78.9809ZM81.0059 30.2802H84.2699V26.2002H86.5259V30.2802H89.9819V32.2482H86.5259V39.4002C86.5259 39.8482 86.7339 40.0722 87.1499 40.0722H89.3099V42.0402H86.2379C85.6619 42.0402 85.1899 41.8562 84.8219 41.4882C84.4539 41.1042 84.2699 40.6162 84.2699 40.0242V32.2482H81.0059V30.2802ZM91.1343 30.2802H93.5823L96.9903 39.8802H97.2783L100.686 30.2802H103.134L98.7423 42.0402H95.5263L91.1343 30.2802ZM104.677 33.3762C105.141 32.3842 105.845 31.5682 106.789 30.9282C107.749 30.2722 108.909 29.9442 110.269 29.9442C111.853 29.9442 113.117 30.3682 114.061 31.2162C115.005 32.0642 115.477 33.2002 115.477 34.6242V42.0402H113.269V40.1922H112.933C112.645 40.8162 112.157 41.3362 111.469 41.7522C110.781 42.1682 109.885 42.3762 108.781 42.3762C107.469 42.3762 106.413 42.0482 105.613 41.3922C104.829 40.7362 104.437 39.8802 104.437 38.8242C104.437 36.7282 105.933 35.5362 108.925 35.2482L113.269 34.8402V34.5282C113.269 33.7282 112.997 33.1042 112.453 32.6562C111.925 32.1922 111.181 31.9602 110.221 31.9602C108.445 31.9602 107.245 32.7282 106.621 34.2642L104.677 33.3762ZM106.717 38.7282C106.717 39.2882 106.933 39.7282 107.365 40.0482C107.797 40.3522 108.397 40.5042 109.165 40.5042C110.493 40.5042 111.509 40.1602 112.213 39.4722C112.917 38.7682 113.269 37.8802 113.269 36.8082V36.6162L109.165 37.0002C107.533 37.1442 106.717 37.7202 106.717 38.7282ZM116.892 30.2802H119.34L122.748 39.8802H123.036L126.444 30.2802H128.892L124.5 42.0402H121.284L116.892 30.2802ZM131.755 40.6242C130.619 39.4562 130.051 37.9682 130.051 36.1602C130.051 34.3522 130.619 32.8642 131.755 31.6962C132.907 30.5282 134.355 29.9442 136.099 29.9442C137.843 29.9442 139.283 30.5282 140.419 31.6962C141.571 32.8642 142.147 34.3522 142.147 36.1602C142.147 37.9682 141.571 39.4562 140.419 40.6242C139.283 41.7922 137.843 42.3762 136.099 42.3762C134.355 42.3762 132.907 41.7922 131.755 40.6242ZM133.339 33.1362C132.651 33.8722 132.307 34.8802 132.307 36.1602C132.307 37.4402 132.651 38.4562 133.339 39.2082C134.043 39.9442 134.963 40.3122 136.099 40.3122C137.235 40.3122 138.147 39.9442 138.835 39.2082C139.539 38.4562 139.891 37.4402 139.891 36.1602C139.891 34.8802 139.539 33.8722 138.835 33.1362C138.147 32.3842 137.235 32.0082 136.099 32.0082C134.963 32.0082 134.043 32.3842 133.339 33.1362Z" fill="#252234"/>
<path d="M39.7358 24.0402H46.8104L36.3654 41.5478H29.3027L39.7358 24.0402Z" fill="#865DDB"/>
<path d="M46.2323 32.7378H53.3027L48.0804 41.5479H41.0137L46.2323 32.7378Z" fill="#865DDB"/>
</svg>
