<svg width="189" height="67" viewBox="0 0 189 67" fill="none" xmlns="http://www.w3.org/2000/svg">
<rect x="0.907959" y="0.120605" width="188" height="66" rx="33" fill="white"/>
<rect x="112.058" y="21.2706" width="52.7" height="23.7" rx="11.85" fill="#252234" stroke="white" stroke-width="0.3"/>
<path d="M121.908 35.2456L125.033 32.1206L128.158 35.2456" stroke="#00CD88" stroke-linecap="round" stroke-linejoin="round"/>
<path d="M133.678 37.1206V36.8706C133.678 36.6373 133.698 36.4406 133.738 36.2806C133.778 36.1206 133.855 35.9306 133.968 35.7106L136.638 30.9606V30.8506H132.478V30.1206H137.488V31.0806L134.698 36.0806C134.618 36.2206 134.561 36.3473 134.528 36.4606C134.501 36.5739 134.488 36.7173 134.488 36.8906V37.1206H133.678ZM138.398 37.2606C138.205 37.2606 138.042 37.1973 137.908 37.0706C137.782 36.9439 137.718 36.7806 137.718 36.5806C137.718 36.3806 137.782 36.2173 137.908 36.0906C138.042 35.9639 138.205 35.9006 138.398 35.9006C138.598 35.9006 138.762 35.9639 138.888 36.0906C139.015 36.2173 139.078 36.3806 139.078 36.5806C139.078 36.7806 139.015 36.9439 138.888 37.0706C138.762 37.1973 138.598 37.2606 138.398 37.2606ZM142.688 37.2606C142.174 37.2606 141.731 37.1639 141.358 36.9706C140.984 36.7706 140.694 36.4973 140.488 36.1506C140.281 35.7973 140.178 35.3906 140.178 34.9306V34.8106H140.988V34.9006C140.988 35.4273 141.141 35.8306 141.448 36.1106C141.754 36.3906 142.161 36.5306 142.668 36.5306C143.201 36.5306 143.618 36.3806 143.918 36.0806C144.218 35.7806 144.368 35.3706 144.368 34.8506V34.7606C144.368 34.2606 144.221 33.8639 143.928 33.5706C143.641 33.2706 143.268 33.1206 142.808 33.1206C142.541 33.1206 142.321 33.1639 142.148 33.2506C141.974 33.3306 141.838 33.4339 141.738 33.5606C141.638 33.6806 141.554 33.7973 141.488 33.9106H140.388V30.1206H144.988V30.8506H141.198V33.2706H141.338C141.411 33.1373 141.511 33.0073 141.638 32.8806C141.771 32.7539 141.948 32.6473 142.168 32.5606C142.388 32.4739 142.661 32.4306 142.988 32.4306C143.394 32.4306 143.761 32.5239 144.088 32.7106C144.421 32.8973 144.684 33.1639 144.878 33.5106C145.078 33.8573 145.178 34.2706 145.178 34.7506V34.8606C145.178 35.3339 145.078 35.7506 144.878 36.1106C144.678 36.4706 144.391 36.7539 144.018 36.9606C143.644 37.1606 143.201 37.2606 142.688 37.2606ZM147.004 37.2606L146.464 36.8306L152.034 29.9806L152.564 30.4106L147.004 37.2606ZM151.444 37.2506C150.957 37.2506 150.567 37.1106 150.274 36.8306C149.987 36.5439 149.844 36.1573 149.844 35.6706V35.6106C149.844 35.1239 149.987 34.7406 150.274 34.4606C150.567 34.1739 150.957 34.0306 151.444 34.0306C151.917 34.0306 152.301 34.1739 152.594 34.4606C152.887 34.7406 153.034 35.1239 153.034 35.6106V35.6706C153.034 36.1573 152.887 36.5439 152.594 36.8306C152.307 37.1106 151.924 37.2506 151.444 37.2506ZM151.444 36.6706C151.724 36.6706 151.944 36.5806 152.104 36.4006C152.271 36.2206 152.354 35.9873 152.354 35.7006V35.5806C152.354 35.2873 152.271 35.0539 152.104 34.8806C151.944 34.7006 151.724 34.6106 151.444 34.6106C151.157 34.6106 150.931 34.7006 150.764 34.8806C150.604 35.0539 150.524 35.2873 150.524 35.5806V35.7006C150.524 35.9873 150.604 36.2206 150.764 36.4006C150.931 36.5806 151.157 36.6706 151.444 36.6706ZM147.594 33.2106C147.107 33.2106 146.721 33.0673 146.434 32.7806C146.147 32.4939 146.004 32.1106 146.004 31.6306V31.5706C146.004 31.0839 146.147 30.7006 146.434 30.4206C146.721 30.1339 147.107 29.9906 147.594 29.9906C148.074 29.9906 148.457 30.1339 148.744 30.4206C149.037 30.7006 149.184 31.0839 149.184 31.5706V31.6306C149.184 32.1106 149.037 32.4939 148.744 32.7806C148.457 33.0673 148.074 33.2106 147.594 33.2106ZM147.594 32.6306C147.874 32.6306 148.097 32.5406 148.264 32.3606C148.431 32.1806 148.514 31.9473 148.514 31.6606V31.5406C148.514 31.2473 148.431 31.0139 148.264 30.8406C148.097 30.6606 147.874 30.5706 147.594 30.5706C147.307 30.5706 147.081 30.6606 146.914 30.8406C146.754 31.0139 146.674 31.2473 146.674 31.5406V31.6606C146.674 31.9473 146.754 32.1806 146.914 32.3606C147.081 32.5406 147.307 32.6306 147.594 32.6306Z" fill="#00CD88"/>
<path d="M65.9602 25.3206H76.4242V27.5286H68.3602V32.5926H75.9922V34.8006H68.3602V42.1206H65.9602V25.3206ZM77.2947 30.3606H80.5587V26.2806H82.8147V30.3606H86.2707V32.3286H82.8147V39.4806C82.8147 39.9286 83.0227 40.1526 83.4387 40.1526H85.5987V42.1206H82.5267C81.9507 42.1206 81.4787 41.9366 81.1107 41.5686C80.7427 41.1846 80.5587 40.6966 80.5587 40.1046V32.3286H77.2947V30.3606ZM87.7591 30.3606H90.4471L93.6151 34.6806H93.9031L97.0711 30.3606H99.7591L95.3431 36.0726L99.9511 42.1206H97.2391L93.9031 37.5126H93.6151L90.2791 42.1206H87.5671L92.1751 36.0726L87.7591 30.3606Z" fill="#252234"/>
<path d="M42.2863 37.9926H36.7341V43.5504H42.2863V37.9926Z" fill="#FF6928"/>
<path d="M47.2018 30.3422H36.7341V35.8803H49.0924V30.3422H47.2018Z" fill="#FF6928"/>
<path d="M53.9083 22.6732H36.7341V28.2311H53.9083V22.6732Z" fill="#FF6928"/>
<path d="M35.4602 30.3422H29.908V35.9001H35.4602V30.3422Z" fill="#FF6928"/>
</svg>
