<svg width="226" height="67" viewBox="0 0 226 67" fill="none" xmlns="http://www.w3.org/2000/svg">
<rect x="0.605469" y="0.0803833" width="225" height="66" rx="33" fill="#E8F2CF"/>
<rect x="151.754" y="21.2304" width="52.7" height="23.7" rx="11.85" fill="white" stroke="white" stroke-width="0.3"/>
<path d="M167.854 32.0804L164.729 35.2054L161.604 32.0804" stroke="#FF8159" stroke-linecap="round" stroke-linejoin="round"/>
<path d="M172.345 32.3204C172.345 31.5938 172.579 31.0171 173.045 30.5904C173.519 30.1571 174.129 29.9404 174.875 29.9404C175.575 29.9404 176.145 30.1471 176.585 30.5604C177.032 30.9738 177.255 31.5171 177.255 32.1904C177.255 32.8438 177.052 33.3538 176.645 33.7204C176.239 34.0871 175.652 34.3871 174.885 34.6204C174.252 34.8138 173.805 35.0104 173.545 35.2104C173.292 35.4038 173.165 35.7238 173.165 36.1704V36.3304H177.215V37.0804H172.335V36.2704C172.335 35.6238 172.515 35.1304 172.875 34.7904C173.242 34.4504 173.792 34.1738 174.525 33.9604C175.172 33.7671 175.652 33.5371 175.965 33.2704C176.279 33.0038 176.435 32.6338 176.435 32.1604C176.435 31.7071 176.289 31.3504 175.995 31.0904C175.709 30.8238 175.335 30.6904 174.875 30.6904C174.342 30.6904 173.922 30.8371 173.615 31.1304C173.315 31.4238 173.165 31.8371 173.165 32.3704V32.5804H172.345V32.3204ZM178.415 37.0204C178.282 36.8871 178.215 36.7238 178.215 36.5304C178.215 36.3371 178.282 36.1738 178.415 36.0404C178.549 35.9071 178.712 35.8404 178.905 35.8404C179.099 35.8404 179.262 35.9071 179.395 36.0404C179.529 36.1738 179.595 36.3371 179.595 36.5304C179.595 36.7238 179.529 36.8871 179.395 37.0204C179.262 37.1538 179.099 37.2204 178.905 37.2204C178.712 37.2204 178.549 37.1538 178.415 37.0204ZM180.837 30.0804H185.427V30.8304H181.647V33.3004H181.767C182.1 32.6804 182.67 32.3704 183.477 32.3704C184.09 32.3704 184.6 32.5871 185.007 33.0204C185.414 33.4471 185.617 34.0104 185.617 34.7104C185.617 35.4371 185.387 36.0371 184.927 36.5104C184.467 36.9838 183.864 37.2204 183.117 37.2204C182.357 37.2204 181.744 37.0004 181.277 36.5604C180.81 36.1138 180.577 35.5238 180.577 34.7904V34.6104H181.387V34.7604C181.387 35.3004 181.54 35.7204 181.847 36.0204C182.154 36.3204 182.577 36.4704 183.117 36.4704C183.644 36.4704 184.054 36.3138 184.347 36.0004C184.64 35.6871 184.787 35.2571 184.787 34.7104C184.787 34.2104 184.654 33.8171 184.387 33.5304C184.12 33.2438 183.764 33.1004 183.317 33.1004C182.75 33.1004 182.34 33.3404 182.087 33.8204H180.837V30.0804ZM186.546 31.5404C186.546 31.0404 186.686 30.6504 186.966 30.3704C187.252 30.0838 187.646 29.9404 188.146 29.9404C188.639 29.9404 189.029 30.0838 189.316 30.3704C189.602 30.6571 189.746 31.0471 189.746 31.5404V31.7304C189.746 32.2304 189.602 32.6204 189.316 32.9004C189.036 33.1804 188.646 33.3204 188.146 33.3204C187.646 33.3204 187.252 33.1804 186.966 32.9004C186.686 32.6204 186.546 32.2304 186.546 31.7304V31.5404ZM190.376 32.4804L192.146 29.9904L192.776 30.4504L190.826 32.8204L190.376 32.4804ZM187.216 31.4904V31.7704C187.216 32.0638 187.296 32.2971 187.456 32.4704C187.616 32.6438 187.846 32.7304 188.146 32.7304C188.446 32.7304 188.672 32.6471 188.826 32.4804C188.986 32.3071 189.066 32.0704 189.066 31.7704V31.4904C189.066 31.1904 188.986 30.9571 188.826 30.7904C188.672 30.6171 188.446 30.5304 188.146 30.5304C187.846 30.5304 187.616 30.6171 187.456 30.7904C187.296 30.9638 187.216 31.1971 187.216 31.4904ZM190.046 35.4404C190.046 34.9404 190.186 34.5504 190.466 34.2704C190.752 33.9838 191.146 33.8404 191.646 33.8404C192.139 33.8404 192.529 33.9838 192.816 34.2704C193.102 34.5571 193.246 34.9471 193.246 35.4404V35.6304C193.246 36.1304 193.102 36.5204 192.816 36.8004C192.536 37.0804 192.146 37.2204 191.646 37.2204C191.146 37.2204 190.752 37.0804 190.466 36.8004C190.186 36.5204 190.046 36.1304 190.046 35.6304V35.4404ZM189.416 34.6804L187.646 37.1704L187.016 36.7104L188.966 34.3404L189.416 34.6804ZM190.726 35.3904V35.6704C190.726 35.9704 190.802 36.2071 190.956 36.3804C191.116 36.5471 191.346 36.6304 191.646 36.6304C191.946 36.6304 192.176 36.5438 192.336 36.3704C192.496 36.1971 192.576 35.9638 192.576 35.6704V35.3904C192.576 35.0971 192.496 34.8638 192.336 34.6904C192.176 34.5171 191.946 34.4304 191.646 34.4304C191.346 34.4304 191.116 34.5171 190.956 34.6904C190.802 34.8571 190.726 35.0904 190.726 35.3904Z" fill="#FF8159"/>
<path d="M67.3565 41.0804V24.2804H69.9485L69.9485 38.7284H78.0365V41.0804H67.3565ZM80.4832 41.0804V29.2484H82.9552V41.0804H80.4832ZM81.7312 27.6404C81.2512 27.6404 80.8432 27.4884 80.5072 27.1844C80.1872 26.8644 80.0272 26.4564 80.0272 25.9604C80.0272 25.4644 80.1872 25.0644 80.5072 24.7604C80.8432 24.4404 81.2512 24.2804 81.7312 24.2804C82.2272 24.2804 82.6352 24.4404 82.9552 24.7604C83.2752 25.0644 83.4352 25.4644 83.4352 25.9604C83.4352 26.4564 83.2752 26.8644 82.9552 27.1844C82.6352 27.4884 82.2272 27.6404 81.7312 27.6404ZM95.8878 45.8804V39.4724H95.5038C95.3278 39.7924 95.0718 40.1044 94.7358 40.4084C94.3998 40.6964 93.9678 40.9364 93.4398 41.1284C92.9278 41.3204 92.2878 41.4164 91.5198 41.4164C90.5278 41.4164 89.6158 41.1764 88.7838 40.6964C87.9518 40.2164 87.2878 39.5284 86.7918 38.6324C86.2958 37.7204 86.0478 36.6244 86.0478 35.3444V34.9844C86.0478 33.7044 86.2958 32.6164 86.7918 31.7204C87.3038 30.8084 87.9758 30.1124 88.8078 29.6324C89.6398 29.1524 90.5438 28.9124 91.5198 28.9124C92.6718 28.9124 93.5518 29.1204 94.1598 29.5364C94.7838 29.9524 95.2478 30.4244 95.5518 30.9524H95.9358V29.2484H98.3598V45.8804H95.8878ZM92.2158 39.2564C93.3038 39.2564 94.1918 38.9124 94.8798 38.2244C95.5678 37.5364 95.9118 36.5524 95.9118 35.2724V35.0564C95.9118 33.7924 95.5598 32.8164 94.8558 32.1284C94.1678 31.4404 93.2878 31.0964 92.2158 31.0964C91.1598 31.0964 90.2798 31.4404 89.5758 32.1284C88.8878 32.8164 88.5438 33.7924 88.5438 35.0564V35.2724C88.5438 36.5524 88.8878 37.5364 89.5758 38.2244C90.2798 38.9124 91.1598 39.2564 92.2158 39.2564ZM106.535 41.2964C105.639 41.2964 104.839 41.0964 104.135 40.6964C103.431 40.2964 102.879 39.7284 102.479 38.9924C102.079 38.2564 101.879 37.3764 101.879 36.3524V29.2484H104.351V36.1844C104.351 37.2084 104.607 37.9684 105.119 38.4644C105.631 38.9444 106.343 39.1844 107.255 39.1844C108.263 39.1844 109.071 38.8484 109.679 38.1764C110.303 37.4884 110.615 36.5044 110.615 35.2244V29.2484H113.087V41.0804H110.663V39.3044H110.279C110.055 39.7844 109.655 40.2404 109.079 40.6724C108.503 41.0884 107.655 41.2964 106.535 41.2964ZM116.741 41.0804V29.2484H119.213V41.0804H116.741ZM117.989 27.6404C117.509 27.6404 117.101 27.4884 116.765 27.1844C116.445 26.8644 116.285 26.4564 116.285 25.9604C116.285 25.4644 116.445 25.0644 116.765 24.7604C117.101 24.4404 117.509 24.2804 117.989 24.2804C118.485 24.2804 118.893 24.4404 119.213 24.7604C119.533 25.0644 119.693 25.4644 119.693 25.9604C119.693 26.4564 119.533 26.8644 119.213 27.1844C118.893 27.4884 118.485 27.6404 117.989 27.6404ZM127.778 41.4164C126.802 41.4164 125.898 41.1764 125.066 40.6964C124.234 40.2164 123.562 39.5284 123.05 38.6324C122.554 37.7204 122.306 36.6244 122.306 35.3444V34.9844C122.306 33.7204 122.554 32.6324 123.05 31.7204C123.546 30.8084 124.21 30.1124 125.042 29.6324C125.874 29.1524 126.786 28.9124 127.778 28.9124C128.546 28.9124 129.186 29.0084 129.698 29.2004C130.226 29.3924 130.658 29.6404 130.994 29.9444C131.33 30.2324 131.586 30.5364 131.762 30.8564H132.146V24.2804H134.618V41.0804H132.194V39.4004H131.81C131.506 39.9124 131.042 40.3764 130.418 40.7924C129.81 41.2084 128.93 41.4164 127.778 41.4164ZM128.474 39.2564C129.546 39.2564 130.426 38.9124 131.114 38.2244C131.818 37.5364 132.17 36.5524 132.17 35.2724V35.0564C132.17 33.7924 131.826 32.8164 131.138 32.1284C130.45 31.4404 129.562 31.0964 128.474 31.0964C127.418 31.0964 126.538 31.4404 125.834 32.1284C125.146 32.8164 124.802 33.7924 124.802 35.0564V35.2724C124.802 36.5524 125.146 37.5364 125.834 38.2244C126.538 38.9124 127.418 39.2564 128.474 39.2564Z" fill="#252234"/>
<path d="M46.6604 46.0804C46.7753 46.0807 46.8891 46.0583 46.9953 46.0144C47.1015 45.9705 47.1981 45.9061 47.2795 45.8247C47.3609 45.7432 47.4256 45.6465 47.4698 45.54C47.514 45.4335 47.5368 45.3192 47.5371 45.2038V41.524C47.5367 41.3464 47.5015 41.1707 47.4334 41.0068C47.3654 40.843 47.266 40.6942 47.1407 40.569C47.0155 40.4437 46.8669 40.3446 46.7035 40.2771C46.5401 40.2095 46.3651 40.1751 46.1884 40.1756H43.5572C43.3804 40.1761 43.2052 40.1416 43.0417 40.074C42.8782 40.0065 42.7295 39.9073 42.6042 39.782C42.4788 39.6567 42.3792 39.5079 42.3111 39.3439C42.243 39.18 42.2077 39.0042 42.2072 38.8265V34.8275C42.207 34.6497 42.1719 34.4737 42.1039 34.3096C42.0359 34.1455 41.9365 33.9964 41.8112 33.871C41.6858 33.7455 41.5372 33.6461 41.3736 33.5784C41.21 33.5107 41.0348 33.4761 40.8579 33.4765H36.8572C36.5005 33.4774 36.1582 33.3359 35.9053 33.0831C35.6524 32.8304 35.5097 32.4871 35.5085 32.1287V29.499C35.5082 29.3213 35.4731 29.1454 35.4052 28.9813C35.3372 28.8173 35.2377 28.6683 35.1124 28.543C34.987 28.4176 34.8383 28.3183 34.6748 28.2507C34.5112 28.1832 34.336 28.1487 34.1592 28.1493H30.4818C30.3668 28.149 30.253 28.1714 30.1467 28.2153C30.0404 28.2592 29.9437 28.3238 29.8623 28.4052C29.7808 28.4867 29.7161 28.5835 29.6719 28.6901C29.6276 28.7967 29.6047 28.911 29.6045 29.0265V45.2019C29.6046 45.3174 29.6273 45.4318 29.6714 45.5384C29.7155 45.6451 29.78 45.742 29.8614 45.8236C29.9427 45.9051 30.0393 45.9698 30.1455 46.0139C30.2518 46.058 30.3656 46.0805 30.4805 46.0804H46.6604ZM47.6278 28.9911V37.3824C47.6279 37.56 47.6628 37.7359 47.7306 37.8999C47.7983 38.064 47.8976 38.213 48.0226 38.3384C48.1477 38.4639 48.2962 38.5634 48.4595 38.6311C48.6229 38.6989 48.7979 38.7337 48.9746 38.7334H53.7272C53.8422 38.7337 53.9562 38.7113 54.0626 38.6673C54.169 38.6233 54.2657 38.5586 54.3472 38.477C54.4287 38.3954 54.4933 38.2985 54.5375 38.1917C54.5816 38.085 54.6044 37.9705 54.6045 37.8549V21.9576C54.6037 21.7244 54.5108 21.5011 54.3464 21.3367C54.1819 21.1722 53.9592 21.0801 53.7272 21.0804H37.5479C37.433 21.0801 37.3192 21.1025 37.2129 21.1464C37.1067 21.1903 37.0101 21.2549 36.9286 21.3363C36.8472 21.4178 36.7826 21.5146 36.7384 21.6212C36.6943 21.7278 36.6714 21.8421 36.6713 21.9576V26.2923C36.6717 26.4699 36.7069 26.6457 36.775 26.8097C36.843 26.9736 36.9425 27.1225 37.0678 27.2478C37.1931 27.3731 37.3418 27.4723 37.5052 27.5398C37.6687 27.6074 37.8438 27.6419 38.0206 27.6414H46.2766C46.6335 27.6405 46.9762 27.7822 47.2292 28.0351C47.4822 28.2881 47.6249 28.6317 47.6259 28.9904" fill="#0090FF"/>
</svg>
