<svg width="254" height="97" viewBox="0 0 254 97" fill="none" xmlns="http://www.w3.org/2000/svg">
<rect x="0.576172" y="0.596863" width="253.424" height="96.1901" rx="48.0951" fill="black"/>
<path d="M62.0035 50.1023C61.9531 44.4987 66.593 41.7726 66.8052 41.6456C64.1774 37.8154 60.1044 37.2921 58.6732 37.2504C55.2524 36.8905 51.9342 39.2967 50.1916 39.2967C48.4143 39.2967 45.7309 37.2852 42.8388 37.3443C39.1171 37.4016 35.6354 39.5558 33.7259 42.9009C29.7851 49.7216 32.7242 59.7448 36.4998 65.258C38.3884 67.9598 40.5953 70.9728 43.484 70.8668C46.31 70.752 47.3656 69.0673 50.776 69.0673C54.155 69.0673 55.1463 70.8668 58.0923 70.799C61.1253 70.752 63.0348 68.0867 64.8574 65.3623C67.0399 62.2693 67.9164 59.2197 67.9512 59.0632C67.8817 59.0389 62.0627 56.8169 62.0035 50.1023ZM56.4384 33.6236C57.9584 31.7233 58.9984 29.1379 58.7097 26.5143C56.5097 26.6117 53.7585 28.0356 52.1742 29.8942C50.7725 31.532 49.5203 34.2165 49.8438 36.741C52.3151 36.9253 54.8524 35.4944 56.4384 33.6236Z" fill="white"/>
<path d="M85.8785 36.8894C84.9934 36.8894 84.2277 36.8461 83.5903 36.773V27.1721C84.4817 27.0344 85.3825 26.9666 86.2845 26.9692C89.9339 26.9692 91.6146 28.7643 91.6146 31.6905C91.6146 35.0659 89.6294 36.8894 85.8785 36.8894ZM86.4129 28.2002C85.9203 28.2002 85.5009 28.2301 85.1531 28.3017V35.6001C85.3412 35.63 85.7024 35.6434 86.2099 35.6434C88.601 35.6434 89.9623 34.2825 89.9623 31.7338C89.9623 29.4612 88.7309 28.2002 86.4129 28.2002ZM96.8522 36.9625C94.7954 36.9625 93.4625 35.427 93.4625 33.3424C93.4625 31.1697 94.8237 29.6208 96.9686 29.6208C98.9956 29.6208 100.358 31.0832 100.358 33.2275C100.358 35.427 98.9538 36.9625 96.8522 36.9625ZM96.9119 30.7639C95.782 30.7639 95.0581 31.8204 95.0581 33.2976C95.0581 34.7466 95.7969 35.8031 96.897 35.8031C97.997 35.8031 98.7359 34.6735 98.7359 33.2678C98.7359 31.8353 98.012 30.7639 96.9119 30.7639ZM112.087 29.7656L109.886 36.8029H108.451L107.539 33.7468C107.313 32.9993 107.124 32.2408 106.974 31.4742H106.944C106.829 32.2412 106.611 33.0097 106.38 33.7468L105.409 36.8029H103.96L101.888 29.7656H103.496L104.293 33.1111C104.481 33.908 104.639 34.66 104.771 35.3703H104.8C104.915 34.7779 105.103 34.0378 105.38 33.126L106.38 29.7671H107.654L108.611 33.0544C108.842 33.8513 109.03 34.6332 109.177 35.3718H109.219C109.32 34.6481 109.48 33.8796 109.696 33.0544L110.551 29.7671L112.087 29.7656ZM120.192 36.8029H118.628V32.7619C118.628 31.5174 118.15 30.8937 117.208 30.8937C116.282 30.8937 115.644 31.6905 115.644 32.6172V36.8029H114.08V31.7771C114.08 31.1548 114.065 30.4878 114.022 29.7641H115.398L115.471 30.8504H115.514C115.935 30.0983 116.789 29.6208 117.746 29.6208C119.223 29.6208 120.194 30.7504 120.194 32.5888L120.192 36.8029ZM124.506 36.8029H122.94V26.5364H124.506V36.8029ZM130.209 36.9625C128.154 36.9625 126.819 35.427 126.819 33.3424C126.819 31.1697 128.181 29.6208 130.324 29.6208C132.353 29.6208 133.714 31.0832 133.714 33.2275C133.715 35.427 132.309 36.9625 130.209 36.9625ZM130.267 30.7639C129.137 30.7639 128.414 31.8204 128.414 33.2976C128.414 34.7466 129.154 35.8031 130.251 35.8031C131.352 35.8031 132.09 34.6735 132.09 33.2678C132.091 31.8353 131.369 30.7639 130.267 30.7639ZM139.881 36.8029L139.768 35.9926H139.726C139.248 36.6447 138.551 36.9625 137.668 36.9625C136.406 36.9625 135.511 36.0791 135.511 34.8913C135.511 33.1544 137.017 32.2561 139.625 32.2561V32.1263C139.625 31.1996 139.133 30.7355 138.163 30.7355C137.469 30.7355 136.86 30.9101 136.324 31.2578L136.006 30.2296C136.657 29.8238 137.469 29.6208 138.423 29.6208C140.262 29.6208 141.19 30.5908 141.19 32.5321V35.1241C141.19 35.8344 141.222 36.3851 141.292 36.8044L139.881 36.8029ZM139.666 33.2976C137.929 33.2976 137.057 33.7185 137.057 34.7168C137.057 35.4554 137.507 35.8165 138.13 35.8165C138.926 35.8165 139.666 35.2092 139.666 34.384V33.2976ZM148.786 36.8029L148.713 35.6733H148.67C148.221 36.5268 147.465 36.9625 146.41 36.9625C144.713 36.9625 143.456 35.4703 143.456 33.3708C143.456 31.1697 144.759 29.6193 146.538 29.6193C147.48 29.6193 148.147 29.9372 148.524 30.5758H148.555V26.5364H150.121V34.9063C150.121 35.5867 150.137 36.2239 150.179 36.8029H148.786ZM148.555 32.662C148.555 31.6771 147.903 30.837 146.907 30.837C145.747 30.837 145.038 31.8651 145.038 33.3126C145.038 34.7317 145.774 35.7031 146.876 35.7031C147.859 35.7031 148.555 34.8481 148.555 33.8348V32.662ZM160.048 36.9625C157.993 36.9625 156.66 35.427 156.66 33.3424C156.66 31.1697 158.021 29.6208 160.164 29.6208C162.193 29.6208 163.554 31.0832 163.554 33.2275C163.556 35.427 162.151 36.9625 160.048 36.9625ZM160.106 30.7639C158.978 30.7639 158.254 31.8204 158.254 33.2976C158.254 34.7466 158.993 35.8031 160.091 35.8031C161.193 35.8031 161.93 34.6735 161.93 33.2678C161.933 31.8353 161.209 30.7639 160.106 30.7639ZM171.966 36.8029H170.401V32.7619C170.401 31.5174 169.923 30.8937 168.981 30.8937C168.054 30.8937 167.419 31.6905 167.419 32.6172V36.8029H165.853V31.7771C165.853 31.1548 165.838 30.4878 165.795 29.7641H167.171L167.244 30.8504H167.287C167.707 30.0983 168.562 29.6193 169.517 29.6193C170.995 29.6193 171.966 30.7489 171.966 32.5874V36.8029ZM182.491 30.9385H180.77V34.3556C180.77 35.2256 181.071 35.6598 181.68 35.6598C181.957 35.6598 182.188 35.63 182.374 35.5867L182.418 36.7745C182.115 36.8909 181.709 36.9491 181.204 36.9491C179.971 36.9491 179.234 36.2687 179.234 34.4869V30.9385H178.207V29.7656H179.234V28.4763L180.77 28.0122V29.7641H182.491V30.9385ZM190.772 36.8029H189.209V32.7918C189.209 31.5324 188.733 30.8952 187.79 30.8952C186.979 30.8952 186.224 31.4458 186.224 32.5605V36.8029H184.661V26.5364H186.224V30.7639H186.255C186.748 29.9969 187.461 29.6193 188.372 29.6193C189.861 29.6193 190.772 30.7773 190.772 32.6172V36.8029ZM199.256 33.6603H194.562C194.592 34.9928 195.474 35.7449 196.78 35.7449C197.474 35.7449 198.113 35.6285 198.677 35.4121L198.92 36.4985C198.254 36.7879 197.471 36.9327 196.559 36.9327C194.357 36.9327 193.054 35.5419 193.054 33.3857C193.054 31.2279 194.389 29.6059 196.383 29.6059C198.181 29.6059 199.31 30.9385 199.31 32.9515C199.32 33.189 199.302 33.4269 199.256 33.6603ZM197.822 32.5456C197.822 31.4592 197.274 30.6922 196.274 30.6922C195.375 30.6922 194.665 31.4742 194.563 32.5456H197.822Z" fill="white"/>
<path d="M100.429 65.0174H97.0251L95.1607 59.1603H88.6801L86.9041 65.0174H83.5903L90.0125 45.0773H93.9782L100.429 65.0174ZM94.5986 56.7031L92.9125 51.4963C92.7342 50.9644 92.3985 49.7117 91.9069 47.7399H91.8469C91.6491 48.588 91.3329 49.8406 90.8997 51.4963L89.2421 56.7031H94.5986ZM116.912 57.6515C116.912 60.0968 116.248 62.0297 114.919 63.4486C113.729 64.7117 112.249 65.3425 110.485 65.3425C108.58 65.3425 107.211 64.6638 106.379 63.3033V70.8475H103.183V55.365C103.183 53.8292 103.143 52.2544 103.065 50.6392H105.875L106.054 52.9182H106.114C107.179 51.2011 108.796 50.3425 110.966 50.3425C112.663 50.3425 114.079 51.0123 115.212 52.3533C116.344 53.6974 116.912 55.4624 116.912 57.6515ZM113.657 57.7684C113.657 56.3689 113.342 55.2152 112.71 54.3057C112.019 53.3602 111.091 52.8868 109.928 52.8868C109.139 52.8868 108.423 53.1505 107.783 53.6704C107.142 54.1948 106.722 54.8796 106.526 55.7276C106.438 56.0448 106.388 56.3712 106.377 56.7001V59.0989C106.377 60.1433 106.698 61.0258 107.339 61.748C107.981 62.4672 108.814 62.8283 109.839 62.8283C111.043 62.8283 111.98 62.3623 112.65 61.4378C113.321 60.5104 113.657 59.2877 113.657 57.7684ZM133.454 57.6515C133.454 60.0968 132.79 62.0297 131.46 63.4486C130.269 64.7117 128.791 65.3425 127.026 65.3425C125.121 65.3425 123.751 64.6638 122.919 63.3033V70.8475H119.724V55.365C119.724 53.8292 119.683 52.2544 119.605 50.6392H122.415L122.594 52.9182H122.654C123.718 51.2011 125.335 50.3425 127.507 50.3425C129.202 50.3425 130.618 51.0123 131.754 52.3533C132.884 53.6974 133.454 55.4624 133.454 57.6515ZM130.197 57.7684C130.197 56.3689 129.881 55.2152 129.248 54.3057C128.557 53.3602 127.633 52.8868 126.47 52.8868C125.681 52.8868 124.965 53.1505 124.322 53.6704C123.68 54.1948 123.262 54.8796 123.066 55.7276C122.968 56.1232 122.916 56.4453 122.916 56.7001V59.0989C122.916 60.1433 123.238 61.0258 123.877 61.748C124.518 62.4657 125.351 62.8283 126.38 62.8283C127.585 62.8283 128.521 62.3623 129.19 61.4378C129.861 60.5104 130.197 59.2877 130.197 57.7684ZM151.948 59.4241C151.948 61.1217 151.355 62.5017 150.175 63.567C148.877 64.7297 147.065 65.3126 144.742 65.3126C142.596 65.3126 140.875 64.899 139.578 64.0704L140.316 61.4079C141.718 62.238 143.257 62.6515 144.933 62.6515C146.138 62.6515 147.074 62.3788 147.743 61.8379C148.413 61.2955 148.751 60.5703 148.751 59.6653C148.751 58.8547 148.471 58.1759 147.921 57.623C147.368 57.0716 146.454 56.5577 145.169 56.0857C141.677 54.7837 139.93 52.8793 139.93 50.374C139.93 48.7378 140.547 47.3983 141.779 46.3509C143.011 45.3051 144.645 44.7822 146.677 44.7822C148.492 44.7822 150.004 45.0983 151.205 45.7291L150.403 48.3333C149.273 47.7219 147.998 47.4163 146.571 47.4163C145.444 47.4163 144.559 47.6935 143.927 48.2449C143.395 48.7378 143.125 49.3387 143.125 50.0519C143.125 50.8385 143.432 51.4918 144.044 52.0042C144.574 52.4762 145.543 52.9901 146.942 53.5415C148.66 54.2338 149.922 55.0399 150.73 55.9659C151.544 56.8918 151.948 58.0471 151.948 59.4241ZM162.54 53.0366H159.018V60.0174C159.018 61.793 159.638 62.6785 160.882 62.6785C161.453 62.6785 161.927 62.6305 162.302 62.5301L162.39 64.956C161.761 65.1912 160.932 65.3096 159.905 65.3096C158.643 65.3096 157.657 64.9245 156.945 64.1544C156.236 63.3842 155.879 62.0941 155.879 60.2781V53.0306H153.781V50.6332H155.879V48.0006L159.018 47.0537V50.6332H162.54V53.0366ZM178.4 57.7099C178.4 59.92 177.767 61.7345 176.505 63.1535C175.185 64.6143 173.428 65.3425 171.239 65.3425C169.125 65.3425 167.445 64.6428 166.192 63.2449C164.939 61.8439 164.313 60.0788 164.313 57.9497C164.313 55.7216 164.96 53.8966 166.251 52.4777C167.544 51.0573 169.286 50.347 171.475 50.347C173.586 50.347 175.281 51.0483 176.564 52.4477C177.79 53.8052 178.4 55.5583 178.4 57.7099ZM175.087 57.7834C175.087 56.4663 174.803 55.3366 174.232 54.3911C173.562 53.2494 172.602 52.6785 171.36 52.6785C170.08 52.6785 169.098 53.2494 168.43 54.3911C167.857 55.3366 167.573 56.4858 167.573 57.8433C167.573 59.1618 167.857 60.2946 168.43 61.2371C169.121 62.3788 170.085 62.9497 171.333 62.9497C172.555 62.9497 173.512 62.3668 174.205 61.2086C174.792 60.2407 175.087 59.1034 175.087 57.7834ZM188.79 53.4486C188.458 53.3886 188.121 53.3591 187.783 53.3602C186.659 53.3602 185.79 53.7828 185.178 54.6338C184.648 55.383 184.381 56.33 184.381 57.4732V65.0174H181.186V55.1672C181.189 53.6579 181.158 52.1487 181.093 50.6407H183.876L183.993 53.3917H184.081C184.42 52.4462 184.951 51.6836 185.679 51.1127C186.346 50.6139 187.156 50.3437 187.989 50.3425C188.284 50.3425 188.551 50.3635 188.787 50.401L188.79 53.4486ZM203.081 57.1481C203.089 57.6337 203.05 58.1189 202.964 58.597H193.378C193.414 60.0174 193.879 61.1052 194.769 61.8544C195.577 62.5226 196.621 62.8583 197.904 62.8583C199.324 62.8583 200.619 62.6335 201.783 62.1795L202.284 64.3956C200.923 64.9889 199.316 65.2841 197.462 65.2841C195.232 65.2841 193.482 64.6278 192.208 63.3183C190.937 62.0072 190.3 60.2452 190.3 58.0381C190.3 55.8715 190.892 54.066 192.077 52.626C193.318 51.0887 194.995 50.3201 197.105 50.3201C199.178 50.3201 200.747 51.0887 201.813 52.626C202.657 53.8442 203.081 55.3545 203.081 57.1481ZM200.034 56.3195C200.057 55.371 199.847 54.5544 199.414 53.8637C198.861 52.9737 198.009 52.5301 196.869 52.5301C195.824 52.5301 194.973 52.9632 194.325 53.8322C193.793 54.5229 193.477 55.353 193.38 56.3165L200.034 56.3195Z" fill="white"/>
</svg>
