<svg width="268" height="97" viewBox="0 0 268 97" fill="none" xmlns="http://www.w3.org/2000/svg">
<rect y="0.596863" width="267.298" height="96.1901" rx="48.0951" fill="black"/>
<path d="M31.9116 29.6787C31.4366 30.1344 31.2783 30.8938 31.2783 31.8051V65.3724C31.2783 66.2837 31.595 67.0431 32.0699 67.4988L32.2282 67.6507L51.8593 48.8166V48.5128L31.9116 29.6787Z" fill="url(#paint0_linear_29_695)"/>
<path d="M58.1916 55.196L51.7007 48.9686V48.5129L58.1916 42.2855L58.3499 42.4374L66.1073 46.6903C68.3238 47.9054 68.3238 49.8799 66.1073 51.095L58.1916 55.196Z" fill="url(#paint1_linear_29_695)"/>
<path d="M58.3497 55.0441L51.7005 48.6649L31.9111 67.6508C32.7027 68.4103 33.8109 68.4103 35.2357 67.8027L58.3497 55.0441Z" fill="url(#paint2_linear_29_695)"/>
<path d="M58.3497 42.2856L35.2357 29.6789C33.8109 28.9194 32.7027 29.0713 31.9111 29.8307L51.7005 48.6648L58.3497 42.2856Z" fill="url(#paint3_linear_29_695)"/>
<path opacity="0.2" d="M58.1914 54.8922L35.2357 67.3469C33.9692 68.1064 32.861 67.9545 32.0694 67.3469L31.9111 67.4988L32.0694 67.6507C32.861 68.2583 33.9692 68.4102 35.2357 67.6507L58.1914 54.8922Z" fill="black"/>
<path opacity="0.12" d="M31.9116 67.3471C31.4366 66.8914 31.2783 66.132 31.2783 65.2206V65.3725C31.2783 66.2839 31.595 67.0433 32.0699 67.499V67.3471H31.9116ZM66.1076 50.6394L58.1919 54.8923L58.3502 55.0441L66.1076 50.7913C67.2158 50.1837 67.6908 49.4243 67.6908 48.6649C67.6908 49.4243 67.0575 50.0318 66.1076 50.6394Z" fill="black"/>
<path opacity="0.25" d="M35.2362 29.8306L66.1076 46.6902C67.0575 47.2977 67.6908 47.9053 67.6908 48.6647C67.6908 47.9053 67.2158 47.1459 66.1076 46.5383L35.2362 29.6788C33.0198 28.4637 31.2783 29.375 31.2783 31.8052V31.9571C31.2783 29.6788 33.0198 28.6155 35.2362 29.8306Z" fill="white"/>
<path d="M93.499 32.7374C93.499 34.0827 93.1627 35.2599 92.3218 36.1007C91.3129 37.1097 90.1357 37.6142 88.6222 37.6142C87.1088 37.6142 85.9316 37.1097 84.9226 36.1007C83.9137 35.0917 83.4092 33.9146 83.4092 32.4011C83.4092 30.8876 83.9137 29.7105 84.9226 28.7015C85.9316 27.6925 87.1088 27.188 88.6222 27.188C89.2949 27.188 89.9675 27.3562 90.6402 27.6925C91.3129 28.0289 91.8173 28.3652 92.1537 28.8697L91.3129 29.7105C90.6402 28.8697 89.7994 28.5334 88.6222 28.5334C87.6133 28.5334 86.6043 28.8697 85.9316 29.7105C85.0908 30.3832 84.7545 31.3921 84.7545 32.5693C84.7545 33.7464 85.0908 34.7554 85.9316 35.4281C86.7724 36.1007 87.6133 36.6052 88.6222 36.6052C89.7994 36.6052 90.6402 36.2689 91.481 35.4281C91.9855 34.9236 92.3218 34.2509 92.3218 33.4101H88.6222V32.0648H93.499V32.7374ZM101.234 28.5334H96.6941V31.7285H100.898V32.9056H96.6941V36.1007H101.234V37.446H95.3488V27.3562H101.234V28.5334ZM106.784 37.446H105.439V28.5334H102.58V27.3562H109.643V28.5334H106.784V37.446ZM114.519 37.446V27.3562H115.865V37.446H114.519ZM121.582 37.446H120.237V28.5334H117.378V27.3562H124.273V28.5334H121.414V37.446H121.582ZM137.558 36.1007C136.549 37.1097 135.372 37.6142 133.858 37.6142C132.345 37.6142 131.168 37.1097 130.159 36.1007C129.15 35.0917 128.645 33.9146 128.645 32.4011C128.645 30.8876 129.15 29.7105 130.159 28.7015C131.168 27.6925 132.345 27.188 133.858 27.188C135.372 27.188 136.549 27.6925 137.558 28.7015C138.567 29.7105 139.071 30.8876 139.071 32.4011C139.071 33.9146 138.567 35.0917 137.558 36.1007ZM131.168 35.2599C131.84 35.9325 132.849 36.437 133.858 36.437C134.867 36.437 135.876 36.1007 136.549 35.2599C137.221 34.5872 137.726 33.5783 137.726 32.4011C137.726 31.224 137.39 30.215 136.549 29.5423C135.876 28.8697 134.867 28.3652 133.858 28.3652C132.849 28.3652 131.84 28.7015 131.168 29.5423C130.495 30.215 129.99 31.224 129.99 32.4011C129.99 33.5783 130.327 34.5872 131.168 35.2599ZM140.921 37.446V27.3562H142.435L147.311 35.2599V27.3562H148.657V37.446H147.311L142.098 29.206V37.446H140.921Z" fill="white"/>
<path d="M125.052 51.3795C121.35 51.3795 118.42 54.1557 118.42 58.0115C118.42 61.7131 121.35 64.6435 125.052 64.6435C128.754 64.6435 131.684 61.8673 131.684 58.0115C131.684 54.0014 128.754 51.3795 125.052 51.3795ZM125.052 61.8673C123.047 61.8673 121.35 60.1708 121.35 57.8573C121.35 55.5438 123.047 53.8472 125.052 53.8472C127.057 53.8472 128.754 55.3895 128.754 57.8573C128.754 60.1708 127.057 61.8673 125.052 61.8673ZM110.708 51.3795C107.007 51.3795 104.076 54.1557 104.076 58.0115C104.076 61.7131 107.007 64.6435 110.708 64.6435C114.41 64.6435 117.34 61.8673 117.34 58.0115C117.34 54.0014 114.41 51.3795 110.708 51.3795ZM110.708 61.8673C108.703 61.8673 107.007 60.1708 107.007 57.8573C107.007 55.5438 108.703 53.8472 110.708 53.8472C112.713 53.8472 114.41 55.3895 114.41 57.8573C114.41 60.1708 112.713 61.8673 110.708 61.8673ZM93.5885 53.3845V56.1607H100.221C100.066 57.703 99.4494 58.9369 98.6782 59.7081C97.7528 60.6335 96.2105 61.7131 93.5885 61.7131C89.4243 61.7131 86.3396 58.4742 86.3396 54.3099C86.3396 50.1456 89.5785 46.9067 93.5885 46.9067C95.7478 46.9067 97.4444 47.8321 98.6782 48.9118L100.683 46.9067C98.9867 45.3644 96.8274 44.1306 93.7428 44.1306C88.1904 44.1306 83.4092 48.7575 83.4092 54.3099C83.4092 59.8623 88.1904 64.4893 93.7428 64.4893C96.8274 64.4893 98.9867 63.5639 100.837 61.5588C102.688 59.7081 103.305 57.0861 103.305 55.0811C103.305 54.4641 103.305 53.8472 103.151 53.3845H93.5885ZM163.61 55.5438C162.993 54.0014 161.451 51.3795 158.058 51.3795C154.665 51.3795 151.889 54.0014 151.889 58.0115C151.889 61.7131 154.665 64.6435 158.366 64.6435C161.297 64.6435 163.147 62.7927 163.764 61.7131L161.605 60.1708C160.834 61.2504 159.909 62.0215 158.366 62.0215C156.824 62.0215 155.899 61.4046 155.127 60.0165L163.919 56.3149L163.61 55.5438ZM154.665 57.703C154.665 55.2353 156.67 53.8472 158.058 53.8472C159.137 53.8472 160.217 54.4641 160.526 55.2353L154.665 57.703ZM147.416 64.0266H150.346V44.7475H147.416V64.0266ZM142.789 52.7676C142.018 51.9964 140.784 51.2253 139.241 51.2253C136.003 51.2253 132.918 54.1557 132.918 57.8573C132.918 61.5588 135.848 64.335 139.241 64.335C140.784 64.335 142.018 63.5639 142.635 62.7927H142.789V63.7181C142.789 66.1858 141.401 67.5739 139.241 67.5739C137.545 67.5739 136.311 66.3401 136.003 65.2604L133.535 66.3401C134.306 68.0366 136.157 70.1959 139.396 70.1959C142.789 70.1959 145.565 68.1909 145.565 63.4096V51.688H142.789V52.7676ZM139.396 61.8673C137.391 61.8673 135.694 60.1708 135.694 57.8573C135.694 55.5438 137.391 53.8472 139.396 53.8472C141.401 53.8472 142.943 55.5438 142.943 57.8573C142.943 60.1708 141.401 61.8673 139.396 61.8673ZM177.028 44.7475H170.088V64.0266H173.018V56.7776H177.028C180.267 56.7776 183.352 54.4641 183.352 50.7626C183.352 47.061 180.267 44.7475 177.028 44.7475ZM177.183 54.0014H173.018V47.3694H177.183C179.342 47.3694 180.576 49.2202 180.576 50.6083C180.422 52.3049 179.188 54.0014 177.183 54.0014ZM194.919 51.2253C192.76 51.2253 190.601 52.1507 189.83 54.1557L192.452 55.2353C193.069 54.1557 193.994 53.8472 195.074 53.8472C196.616 53.8472 198.004 54.7726 198.158 56.3149V56.4692C197.696 56.1607 196.462 55.698 195.228 55.698C192.452 55.698 189.676 57.2403 189.676 60.0165C189.676 62.6385 191.989 64.335 194.457 64.335C196.462 64.335 197.387 63.4096 198.158 62.4842H198.313V64.0266H201.089V56.6234C200.78 53.2303 198.158 51.2253 194.919 51.2253ZM194.611 61.8673C193.686 61.8673 192.297 61.4046 192.297 60.1708C192.297 58.6284 193.994 58.1657 195.382 58.1657C196.616 58.1657 197.233 58.4742 198.004 58.7827C197.696 60.6335 196.153 61.8673 194.611 61.8673ZM210.805 51.688L207.567 60.0165H207.412L204.019 51.688H200.935L206.024 63.4096L203.094 69.8874H206.024L213.89 51.688H210.805ZM184.894 64.0266H187.825V44.7475H184.894V64.0266Z" fill="white"/>
<defs>
<linearGradient id="paint0_linear_29_695" x1="49.9595" y1="31.5166" x2="24.49" y2="58.0622" gradientUnits="userSpaceOnUse">
<stop stop-color="#00A0FF"/>
<stop offset="0.007" stop-color="#00A1FF"/>
<stop offset="0.26" stop-color="#00BEFF"/>
<stop offset="0.512" stop-color="#00D2FF"/>
<stop offset="0.76" stop-color="#00DFFF"/>
<stop offset="1" stop-color="#00E3FF"/>
</linearGradient>
<linearGradient id="paint1_linear_29_695" x1="69.0108" y1="48.6663" x2="30.7034" y2="48.6663" gradientUnits="userSpaceOnUse">
<stop stop-color="#FFE000"/>
<stop offset="0.409" stop-color="#FFBD00"/>
<stop offset="0.775" stop-color="#FFA500"/>
<stop offset="1" stop-color="#FF9C00"/>
</linearGradient>
<linearGradient id="paint2_linear_29_695" x1="54.7512" y1="52.1522" x2="20.2143" y2="88.1506" gradientUnits="userSpaceOnUse">
<stop stop-color="#FF3A44"/>
<stop offset="1" stop-color="#C31162"/>
</linearGradient>
<linearGradient id="paint3_linear_29_695" x1="26.9986" y1="18.5546" x2="42.4217" y2="34.6303" gradientUnits="userSpaceOnUse">
<stop stop-color="#32A071"/>
<stop offset="0.069" stop-color="#2DA771"/>
<stop offset="0.476" stop-color="#15CF74"/>
<stop offset="0.801" stop-color="#06E775"/>
<stop offset="1" stop-color="#00F076"/>
</linearGradient>
</defs>
</svg>
